<?xml version="1.0" standalone="no"?>
<!DOCTYPE svg PUBLIC "-//W3C//DTD SVG 20010904//EN"
 "http://www.w3.org/TR/2001/REC-SVG-20010904/DTD/svg10.dtd">
<svg version="1.0" xmlns="http://www.w3.org/2000/svg"
 width="700.000000pt" height="700.000000pt" viewBox="0 0 700.000000 700.000000"
 preserveAspectRatio="xMidYMid meet">

<g transform="translate(0.000000,700.000000) scale(0.100000,-0.100000)"
fill="#000000" stroke="none">
<path d="M1757 4048 c-11 -135 -29 -717 -25 -793 l3 -70 129 -3 c79 -2 133 1
140 8 7 7 -31 10 -122 10 l-132 0 5 193 c4 105 10 295 16 421 5 126 9 249 9
273 0 75 -17 47 -23 -39z"/>
<path d="M3057 4048 c-11 -135 -29 -717 -25 -793 l3 -70 129 -3 c79 -2 133 1
140 8 7 7 -31 10 -122 10 l-132 0 5 193 c4 105 10 295 16 421 5 126 9 249 9
273 0 75 -17 47 -23 -39z"/>
<path d="M4335 4120 c-3 -8 -4 -222 -3 -475 l3 -460 149 -3 c93 -2 153 1 160
8 7 7 -36 10 -137 10 l-147 0 0 453 c0 412 -6 516 -25 467z"/>
<path d="M4690 3913 c0 -6 23 -13 52 -15 73 -7 101 -40 96 -115 -4 -61 5 -69
22 -17 28 85 -13 143 -109 151 -38 4 -61 2 -61 -4z"/>
<path d="M2473 3559 c-15 -15 -6 -347 10 -366 12 -16 282 -18 292 -3 4 6 -43
10 -134 10 l-141 0 -1 43 c-7 234 -15 327 -26 316z"/>
<path d="M3773 3559 c-15 -15 -6 -347 10 -366 12 -16 282 -18 292 -3 4 6 -43
10 -134 10 l-141 0 -1 43 c-7 234 -15 327 -26 316z"/>
<path d="M2060 3541 c0 -23 151 -161 176 -161 25 0 14 14 -83 100 -73 63 -93
77 -93 61z"/>
<path d="M3360 3541 c0 -23 151 -161 176 -161 25 0 14 14 -83 100 -73 63 -93
77 -93 61z"/>
<path d="M4715 3461 l-30 -8 35 -4 c33 -4 39 -11 97 -108 34 -57 71 -117 83
-132 l21 -29 184 0 c109 0 186 4 190 10 4 6 -61 11 -177 12 l-183 3 -77 130
c-80 135 -86 140 -143 126z"/>
</g>
</svg>
